HIERARCHY
ROOT Hips
{
  OFFSET 0 0 0
  CHANNELS 6 Xposition Yposition Zposition Zrotation Xrotation Yrotation
  JOINT LeftHip
  {
    OFFSET 3.43 0 5.68434e-014
    CHANNELS 3 Zrotation Xrotation Yrotation
    JOINT LeftKnee
    {
      OFFSET 1.42109e-013 -18.47 5.11591e-013
      CHANNELS 3 Zrotation Xrotation Yrotation
      JOINT LeftAnkle
      {
        OFFSET 7.53175e-013 -17.95 -7.53175e-013
        CHANNELS 3 Zrotation Xrotation Yrotation
        End Site
        {
          OFFSET 0 -3.12 0
        }
      }
    }
  }
  JOINT RightHip
  {
    OFFSET -3.43 -2.84217e-014 1.42109e-014
    CHANNELS 3 Zrotation Xrotation Yrotation
    JOINT RightKnee
    {
      OFFSET 1.42109e-013 -18.47 4.26326e-014
      CHANNELS 3 Zrotation Xrotation Yrotation
      JOINT RightAnkle
      {
        OFFSET 4.54747e-013 -17.95 -4.29168e-012
        CHANNELS 3 Zrotation Xrotation Yrotation
        End Site
        {
          OFFSET 0 -3.12 0
        }
      }
    }
  }
  JOINT Chest
  {
    OFFSET 2.27374e-013 4.57 5.68434e-014
    CHANNELS 3 Zrotation Xrotation Yrotation
    JOINT Chest2
    {
      OFFSET -1.42109e-014 6.57 1.56319e-013
      CHANNELS 3 Zrotation Xrotation Yrotation
      JOINT LeftCollar
      {
        OFFSET 1.06 4.19 1.76
        CHANNELS 3 Zrotation Xrotation Yrotation
        JOINT LeftShoulder
        {
          OFFSET 5.81 -2.06057e-013 3.83693e-013
          CHANNELS 3 Zrotation Xrotation Yrotation
          JOINT LeftElbow
          {
            OFFSET 6.39488e-013 -12.08 1.06581e-012
            CHANNELS 3 Zrotation Xrotation Yrotation
            JOINT LeftWrist
            {
              OFFSET 1.95257e-011 -9.82 1.46656e-011
              CHANNELS 3 Zrotation Xrotation Yrotation
              End Site
              {
                OFFSET 0 -7.37 0
              }
            }
          }
        }
      }
      JOINT RightCollar
      {
        OFFSET -1.06 4.19 1.76
        CHANNELS 3 Zrotation Xrotation Yrotation
        JOINT RightShoulder
        {
          OFFSET -6.06 -7.81597e-014 2.84217e-013
          CHANNELS 3 Zrotation Xrotation Yrotation
          JOINT RightElbow
          {
            OFFSET 2.34479e-013 -11.08 1.42109e-014
            CHANNELS 3 Zrotation Xrotation Yrotation
            JOINT RightWrist
            {
              OFFSET -8.2423e-013 -9.82 5.41434e-012
              CHANNELS 3 Zrotation Xrotation Yrotation
              End Site
              {
                OFFSET 0 -7.14001 0
              }
            }
          }
        }
      }
      JOINT Neck
      {
        OFFSET 1.42109e-014 4.05 2.98428e-013
        CHANNELS 3 Zrotation Xrotation Yrotation
        JOINT Head
        {
          OFFSET -1.98952e-013 5.19 -4.05009e-012
          CHANNELS 3 Zrotation Xrotation Yrotation
          End Site
          {
            OFFSET 0 4.14001 0
          }
        }
      }
    }
  }
}
MOTION
Frames:	11
Frame Time:	0.0333333
-29.8782 39.6497 39.3261 -6.97318 9.68747 -170.103 -5.91433 9.20088 -7.26462 -0.815312 11.5837 4.1299 0.0203509 -11.5997 0.00206711 -1.45277 -10.5542 -1.50272 -1.59712 64.1168 -5.36915 -3.40944 -3.0138 -0.0897166 -2.5168 3.97669 -1.305 -3.90552 5.79551 -1.56176 9.48592 0.141129 3.60206 17.3051 -10.4474 8.50732 -4.90443 -13.9555 -33.3504 12.4729 2.56477 -0.28032 -7.00868 0.315314 -1.69522 -12.777 4.50858 -6.67498 2.57179 -11.5937 37.4008 0.627151 -4.47323 0.0244943 3.31963 -5.20451 -0.582204 -0.681224 4.04349 0.89329 
-30.0137 39.6371 37.9856 -5.81435 9.57943 -169.307 -4.45049 11.4841 -6.62339 -0.746196 10.4815 2.84587 1.20077 -12.5544 0.132087 -0.801896 -14.218 -1.31537 0.161352 56.9148 -10.6207 -4.59919 -5.03031 -0.202132 -1.87197 4.07863 -2.11514 -3.43254 5.89514 -2.53582 9.7097 0.134606 3.27237 17.1201 -13.4907 7.67793 -5.04688 -15.6064 -33.0935 12.5458 2.38731 -0.262456 -6.91142 0.318183 -1.95342 -12.6334 5.83598 -6.85076 2.77677 -13.0063 37.4546 0.331878 -4.61933 0.0133857 3.46033 -5.2726 -0.650613 -0.645841 4.00562 1.03734 
-30.128 39.5656 36.6603 -4.89876 9.34427 -168.402 -3.28218 13.6235 -6.2487 -0.375164 9.79946 1.75325 2.08354 -13.8804 0.253648 -0.809298 -16.4683 -1.25418 1.27119 46.1766 -14.9124 -4.96858 -6.11936 -0.265748 -1.36488 4.15915 -2.82955 -3.07632 5.9525 -3.36901 9.95942 0.126387 2.91783 16.7545 -16.323 6.84345 -5.14006 -17.335 -32.742 12.6922 2.298 -0.255607 -6.73011 0.317895 -2.13907 -12.4185 6.89553 -7.05731 2.84746 -13.8051 37.4471 0.445728 -4.74567 0.0184699 3.68139 -5.38862 -0.781554 -0.627601 3.93979 1.10035 
-30.2331 39.4313 35.3175 -4.31881 9.06765 -167.461 -2.4217 15.5381 -6.04732 0.0493713 9.55851 0.799047 2.64287 -15.305 0.35516 -1.32794 -16.9404 -1.23025 1.62909 32.3727 -17.9269 -4.28374 -6.77738 -0.25377 -1.03235 4.24903 -3.46511 -2.90317 6.01242 -4.07042 10.195 0.119341 2.63014 16.2174 -18.7649 6.03008 -5.19576 -19.1765 -32.4399 12.921 2.16992 -0.245745 -6.46354 0.3143 -2.24724 -12.151 7.58229 -7.26816 2.77306 -13.8345 37.4264 0.751847 -4.7618 0.0312611 3.96459 -5.56665 -0.940908 -0.658612 3.81613 1.13329 
-30.3379 39.2191 33.8791 -4.35532 8.81177 -166.516 -1.921 17.3472 -5.84842 0.230234 9.91509 -0.341016 2.70703 -16.7756 0.399223 -2.27717 -15.5947 -0.891816 1.04886 17.2965 -19.4293 -2.21679 -6.70836 -0.129939 -1.13577 4.33038 -4.04043 -2.91902 6.08117 -4.68787 10.379 0.116675 2.48338 15.5874 -20.5619 5.26886 -5.27343 -21.1098 -32.4644 13.1033 1.89054 -0.217146 -6.13153 0.308159 -2.28494 -11.8755 7.93803 -7.48126 2.57274 -13.1435 37.3991 1.00927 -4.6379 0.0408718 4.26727 -5.78735 -1.08969 -0.752791 3.63916 1.18938 
-30.4433 38.8926 32.1888 -5.25003 8.61289 -165.691 -1.86814 19.4347 -5.54559 0.118839 10.7759 -1.90633 1.77507 -18.243 0.285026 -3.51833 -14.8609 -0.352226 -0.0506234 8.18573 -19.6021 0.851072 -7.57603 0.0563504 -1.99369 4.26346 -4.49182 -3.03023 6.03953 -5.23846 10.4808 0.11955 2.49725 14.9613 -21.3175 4.61764 -5.45784 -23.0098 -33.0773 13.1045 1.4563 -0.167278 -5.7752 0.300975 -2.27346 -11.7155 8.29051 -7.73514 2.3077 -11.9743 37.4567 1.18775 -4.43747 0.0460192 4.51941 -5.98145 -1.1927 -0.914433 3.46635 1.29676 
-30.4989 38.6109 30.3743 -5.50927 8.6631 -165.231 -0.987705 21.8545 -5.00704 -0.0365481 11.6436 -3.99652 -0.808571 -19.092 -0.135978 -3.43731 -16.0858 0.405548 -1.32659 9.85903 -19.3067 4.06595 -10.5456 0.375395 -2.24951 4.21231 -4.89128 -3.05755 5.97399 -5.67371 10.4913 0.12706 2.64896 14.2795 -21.1246 4.07702 -5.73388 -24.6232 -34.2169 12.9147 0.975577 -0.11042 -5.46065 0.294665 -2.25643 -11.5445 8.4366 -7.99749 1.98513 -10.6901 37.4894 1.44938 -4.29762 0.0543857 4.64037 -6.06469 -1.22641 -1.14342 3.39912 1.44965 
-30.4771 38.49 28.532 -4.6211 8.93475 -165.312 1.0403 24.1375 -4.19168 -0.208981 12.6754 -6.10195 -5.2352 -18.4975 -0.853068 -1.90158 -15.8685 1.51609 -1.73361 11.8401 -19.5681 3.95344 -8.93193 0.308901 -1.52753 4.18995 -5.18837 -2.80664 5.83757 -5.92008 10.4321 0.137475 2.89725 13.3973 -20.0503 3.67322 -6.0153 -25.5942 -35.6008 12.646 0.589536 -0.0653258 -5.26531 0.290889 -2.28683 -11.3377 8.35785 -8.26619 1.63928 -9.66149 37.4099 1.96499 -4.34 0.0744642 4.57871 -5.99886 -1.18692 -1.43237 3.53042 1.61883 
-30.39 38.522 26.5693 -3.30087 9.17806 -165.937 3.44811 25.6025 -3.27173 -0.353182 15.1495 -7.26732 -10.1882 -15.9072 -1.42714 0.197782 -14.9466 2.53799 -1.11894 13.2453 -19.824 1.11419 -3.58916 0.0349104 -0.653485 3.94072 -5.22375 -2.198 5.43257 -5.93389 10.3475 0.148925 3.18815 12.2501 -18.0083 3.51289 -6.20414 -25.5634 -36.8829 12.3894 0.389833 -0.0423132 -5.23896 0.290577 -2.38947 -11.2159 8.37599 -8.5636 1.34426 -9.14871 37.207 2.7446 -4.57308 0.10961 4.35001 -5.83095 -1.09322 -1.75627 3.87582 1.76869 
-30.2678 38.7104 24.4437 -2.12678 9.3039 -167.026 5.42057 25.2876 -1.81926 -0.233037 20.794 -7.51202 -13.3454 -10.2603 -1.20353 2.07286 -12.4289 3.41999 -0.158964 13.2921 -19.601 -0.791804 1.443 0.00997149 -0.169077 3.39543 -4.86281 -1.31112 4.7456 -5.72438 10.2779 0.159223 3.45351 10.9037 -15.1694 3.70179 -6.20788 -24.3043 -37.7453 12.0862 0.397844 -0.042118 -5.36679 0.293711 -2.53573 -11.2424 8.5521 -8.82169 1.17556 -9.2251 36.8559 3.57932 -4.86864 0.152215 4.04126 -5.67217 -0.984438 -2.06677 4.34095 1.86492 
-30.1262 38.8603 22.3606 -0.852862 9.37953 -168.214 6.7477 21.4703 -0.0523052 0.759069 31.9704 -7.15868 -12.6997 -2.33698 -0.260099 3.9576 -10.2923 4.2986 0.786486 14.3463 -19.2655 -1.69629 2.79193 0.0413399 0.366038 2.88644 -4.37814 -0.346027 4.12314 -5.34507 10.2353 0.166138 3.63274 9.74973 -12.353 4.27492 -5.9557 -21.8294 -37.9876 11.5562 0.583584 -0.0590535 -5.57425 0.298928 -2.66055 -11.4689 8.48892 -8.87718 1.18973 -9.79976 36.408 4.13168 -5.06502 0.182821 3.76737 -5.62594 -0.906071 -2.3037 4.76395 1.87697 
